<?xml version="1.0" encoding="utf-8"?>
<!-- Generator: Adobe Illustrator 22.0.1, SVG Export Plug-In . SVG Version: 6.00 Build 0)  -->
<svg version="1.1" id="Layer_1" xmlns="http://www.w3.org/2000/svg" xmlns:xlink="http://www.w3.org/1999/xlink" x="0px" y="0px" width="15px" height="15px" fill="#fff"
	 viewBox="0 0 180 190" style="enable-background:new 0 0 180 190;" xml:space="preserve">
<path d="M90,9.4C42.8,9.4,4.4,47.8,4.4,95s38.4,85.6,85.6,85.6c47.2,0,85.6-38.4,85.6-85.6S137.2,9.4,90,9.4z M157,67
	c0.2,5.1,0.3,9.2,1.6,10.8c7.3,9.9-17.8,16.8-14,31.8c1.7,6.6-16.7,4.5-21.2,10.7c-4.5,6.2-15.5,2-18,0.8s-12.3,2.8-11.4-4
	c0.8-6.8,6.8-7.2,13.1-9.9c6.3-2.8,15.5-12,11-13.2c-21.2-5.7-28.4-25.6-28.4-25.6c-1.3-0.2-1-14.1-6.5-14.5
	c-5.5-0.4-8.5,1.6-16.5,0c-8-1.6-6.3-6.8-7.6-17.9c-0.4-3.7-0.2-5.8,0.4-7c9.3-4.3,19.6-6.7,30.5-6.7C120.1,22.4,146,40.8,157,67z
	 M17.4,95.3c5.6,0.5,13.2,1.8,13.6,5.1c0.6,5.2,0,11.7,4.5,13.6s5.8-7.8,9.7-5.2c3.9,2.6,14.3,5.1,14.3,9.7c0,4.6-1.9,11.7,0,13
	s9.7,10.4,9.7,11.7c0,1.3,2.7,7.9,1.9,10.4c-0.6,1.7-3,6.5-5.7,9.7C37.6,153.3,17.5,126.6,17.4,95.3z"/>
</svg>
