<!DOCTYPE svg PUBLIC "-//W3C//DTD SVG 1.1//EN" "http://www.w3.org/Graphics/SVG/1.1/DTD/svg11.dtd">
<!-- Uploaded to: SVG Repo, www.svgrepo.com, Transformed by: SVG Repo Mixer Tools -->
<svg height="64px" width="64px" version="1.1" id="_x32_" xmlns="http://www.w3.org/2000/svg" xmlns:xlink="http://www.w3.org/1999/xlink" viewBox="-256 -256 1024.00 1024.00" xml:space="preserve" fill="#000000" stroke="#000000" stroke-width="0.00512">
<g id="SVGRepo_bgCarrier" stroke-width="0"/>
<g id="SVGRepo_tracerCarrier" stroke-linecap="round" stroke-linejoin="round" stroke="#CCCCCC" stroke-width="9.216"/>
<g id="SVGRepo_iconCarrier"> <style type="text/css"> .st0{fill:#36cd18;} </style> <g> <path class="st0" d="M256,0C114.612,0,0,114.612,0,256.003C0,397.388,114.612,512,256,512c141.381,0,256-114.612,256-255.997 C512,114.612,397.381,0,256,0z M353.845,301.401c-29.021,52.671-86.692,80.278-143.512,84.8c-8.961,0.717-17.895,0.62-26.708,0.428 c-3.688-0.083-8.672,1.158-26.245,14.93l-19.711-19.687c7.186-4.928,14.472-10.574,18.615-15.585 c5.083-6.155,4.766-18.156,4.918-29.302c0.114-7.796,0.775-26.202,0.855-36.851c0.744-98.324,47.666-124.228,94.98-143.942 c46.467-19.356,48.404-46.466,67.766-44.522C344.163,113.605,406.118,206.538,353.845,301.401z"/> <path class="st0" d="M307.926,167.275c-5.084,15.916-37.892,43.564-62.521,75.776c-24.626,32.204-41.634,80.181-49.024,91.175 c-5.683,10.416,10.219,18.047,14.955,7.624c15.623-34.362,37.509-72.95,56.496-95.346c36.792-43.399,48.558-60.956,52.064-72.75 C324.562,158.08,310.294,156.37,307.926,167.275z"/> </g> </g>
</svg>